<svg width="41" height="28" viewBox="0 0 41 28" fill="none" xmlns="http://www.w3.org/2000/svg">
<g opacity="0.1" clip-path="url(#clip0_3_4390)">
<path d="M40.7492 9.9933C40.6102 18.5261 35.9308 25.1324 28.201 27.6906C28.0157 27.7477 27.8489 27.8048 27.671 27.8545C26.5887 28.1639 25.7214 27.9079 25.2118 27.1326C24.7021 26.3572 24.7855 25.4474 25.5194 24.6038C26.9025 23.032 28.0749 21.2887 29.0072 19.4175C29.5261 18.3677 29.5316 18.3695 28.4512 18.038C24.5483 16.8372 21.9334 13.1058 22.0483 8.90115C22.1577 4.88984 25.0895 1.28923 29.0554 0.289165C31.0148 -0.216405 33.0874 -0.0653877 34.9517 0.7188C36.816 1.50299 38.3679 2.87654 39.3667 4.62647C40.323 6.25194 40.8019 8.11113 40.7492 9.9933Z" fill="#FA8B02"/>
<path d="M19.4594 10.032C19.3334 18.6422 14.4724 25.3719 6.63139 27.7901C6.0643 27.9743 5.50648 28.105 4.91345 27.8932C3.5643 27.4107 3.19737 25.8231 4.21108 24.6499C5.66333 22.9793 6.89688 21.1327 7.88232 19.1542C8.1881 18.5372 8.1288 18.2977 7.40419 18.0878C5.42867 17.5195 3.70101 16.3112 2.49585 14.655C1.2907 12.9988 0.677229 10.9897 0.752962 8.94722C0.90122 4.78857 3.94422 1.13455 8.00463 0.237624C10.007 -0.228129 12.1086 -0.0139619 13.9742 0.845953C15.8398 1.70587 17.3618 3.16198 18.2974 4.98195C19.1388 6.58795 19.4872 8.1037 19.4594 10.032Z" fill="#FA8B02"/>
</g>
<defs>
<clipPath id="clip0_3_4390">
<rect width="40" height="28" fill="white" transform="translate(0.75293)"/>
</clipPath>
</defs>
</svg>
